<mxfile host="app.diagrams.net" modified="2023-11-07T18:01:13.040Z" agent="Mozilla/5.0 (Windows NT 10.0; Win64; x64) AppleWebKit/537.36 (KHTML, like Gecko) Chrome/118.0.0.0 Safari/537.36" etag="7VYrWyXo6s5JnVln5zZl" version="22.0.8" type="github">
  <diagram id="C5RBs43oDa-KdzZeNtuy" name="Page-1">
    <mxGraphModel dx="2647" dy="1373" grid="1" gridSize="10" guides="1" tooltips="1" connect="1" arrows="1" fold="1" page="1" pageScale="1" pageWidth="827" pageHeight="1169" math="0" shadow="0">
      <root>
        <mxCell id="WIyWlLk6GJQsqaUBKTNV-0" />
        <mxCell id="WIyWlLk6GJQsqaUBKTNV-1" parent="WIyWlLk6GJQsqaUBKTNV-0" />
        <mxCell id="LqseYLnrZS91-2_6GQep-4" style="edgeStyle=orthogonalEdgeStyle;rounded=0;orthogonalLoop=1;jettySize=auto;html=1;exitX=0.5;exitY=1;exitDx=0;exitDy=0;entryX=0.5;entryY=0;entryDx=0;entryDy=0;" edge="1" parent="WIyWlLk6GJQsqaUBKTNV-1" source="LqseYLnrZS91-2_6GQep-0" target="LqseYLnrZS91-2_6GQep-1">
          <mxGeometry relative="1" as="geometry">
            <mxPoint x="260" y="170" as="targetPoint" />
          </mxGeometry>
        </mxCell>
        <mxCell id="LqseYLnrZS91-2_6GQep-8" style="edgeStyle=orthogonalEdgeStyle;rounded=0;orthogonalLoop=1;jettySize=auto;html=1;exitX=1;exitY=0.5;exitDx=0;exitDy=0;entryX=0;entryY=0.5;entryDx=0;entryDy=0;" edge="1" parent="WIyWlLk6GJQsqaUBKTNV-1" source="LqseYLnrZS91-2_6GQep-0" target="LqseYLnrZS91-2_6GQep-7">
          <mxGeometry relative="1" as="geometry" />
        </mxCell>
        <mxCell id="LqseYLnrZS91-2_6GQep-24" style="edgeStyle=orthogonalEdgeStyle;rounded=0;orthogonalLoop=1;jettySize=auto;html=1;exitX=0;exitY=0.5;exitDx=0;exitDy=0;entryX=0.5;entryY=0;entryDx=0;entryDy=0;" edge="1" parent="WIyWlLk6GJQsqaUBKTNV-1" source="LqseYLnrZS91-2_6GQep-0" target="LqseYLnrZS91-2_6GQep-23">
          <mxGeometry relative="1" as="geometry" />
        </mxCell>
        <mxCell id="LqseYLnrZS91-2_6GQep-0" value="Product Owner" style="rounded=0;whiteSpace=wrap;html=1;fillColor=#d5e8d4;strokeColor=#82b366;" vertex="1" parent="WIyWlLk6GJQsqaUBKTNV-1">
          <mxGeometry x="200" y="80" width="120" height="60" as="geometry" />
        </mxCell>
        <mxCell id="LqseYLnrZS91-2_6GQep-6" style="edgeStyle=orthogonalEdgeStyle;rounded=0;orthogonalLoop=1;jettySize=auto;html=1;exitX=1;exitY=0.5;exitDx=0;exitDy=0;entryX=0;entryY=0.5;entryDx=0;entryDy=0;" edge="1" parent="WIyWlLk6GJQsqaUBKTNV-1" source="LqseYLnrZS91-2_6GQep-1" target="LqseYLnrZS91-2_6GQep-2">
          <mxGeometry relative="1" as="geometry" />
        </mxCell>
        <mxCell id="LqseYLnrZS91-2_6GQep-1" value="Vorstellung" style="rounded=1;whiteSpace=wrap;html=1;" vertex="1" parent="WIyWlLk6GJQsqaUBKTNV-1">
          <mxGeometry x="200" y="200" width="120" height="60" as="geometry" />
        </mxCell>
        <mxCell id="LqseYLnrZS91-2_6GQep-51" style="edgeStyle=orthogonalEdgeStyle;rounded=0;orthogonalLoop=1;jettySize=auto;html=1;exitX=0.25;exitY=1;exitDx=0;exitDy=0;entryX=0.75;entryY=0;entryDx=0;entryDy=0;" edge="1" parent="WIyWlLk6GJQsqaUBKTNV-1" source="LqseYLnrZS91-2_6GQep-2" target="LqseYLnrZS91-2_6GQep-20">
          <mxGeometry relative="1" as="geometry">
            <Array as="points">
              <mxPoint x="430" y="290" />
              <mxPoint x="360" y="290" />
              <mxPoint x="360" y="410" />
              <mxPoint x="290" y="410" />
            </Array>
          </mxGeometry>
        </mxCell>
        <mxCell id="LqseYLnrZS91-2_6GQep-2" value="Sprintziel/&lt;br&gt;Anforderungen" style="rounded=0;whiteSpace=wrap;html=1;" vertex="1" parent="WIyWlLk6GJQsqaUBKTNV-1">
          <mxGeometry x="400" y="200" width="120" height="60" as="geometry" />
        </mxCell>
        <mxCell id="LqseYLnrZS91-2_6GQep-9" style="edgeStyle=orthogonalEdgeStyle;rounded=0;orthogonalLoop=1;jettySize=auto;html=1;exitX=0;exitY=0.5;exitDx=0;exitDy=0;entryX=1;entryY=0.5;entryDx=0;entryDy=0;" edge="1" parent="WIyWlLk6GJQsqaUBKTNV-1" source="LqseYLnrZS91-2_6GQep-3" target="LqseYLnrZS91-2_6GQep-7">
          <mxGeometry relative="1" as="geometry" />
        </mxCell>
        <mxCell id="LqseYLnrZS91-2_6GQep-63" style="edgeStyle=orthogonalEdgeStyle;rounded=0;orthogonalLoop=1;jettySize=auto;html=1;exitX=0.25;exitY=1;exitDx=0;exitDy=0;entryX=1;entryY=0.5;entryDx=0;entryDy=0;" edge="1" parent="WIyWlLk6GJQsqaUBKTNV-1" source="LqseYLnrZS91-2_6GQep-3" target="LqseYLnrZS91-2_6GQep-36">
          <mxGeometry relative="1" as="geometry">
            <mxPoint x="780" y="600" as="targetPoint" />
            <Array as="points">
              <mxPoint x="630" y="290" />
              <mxPoint x="760" y="290" />
              <mxPoint x="760" y="590" />
            </Array>
          </mxGeometry>
        </mxCell>
        <mxCell id="LqseYLnrZS91-2_6GQep-3" value="Entwicklungs Team" style="rounded=0;whiteSpace=wrap;html=1;fillColor=#d5e8d4;strokeColor=#82b366;" vertex="1" parent="WIyWlLk6GJQsqaUBKTNV-1">
          <mxGeometry x="600" y="80" width="120" height="60" as="geometry" />
        </mxCell>
        <mxCell id="LqseYLnrZS91-2_6GQep-10" style="edgeStyle=orthogonalEdgeStyle;rounded=0;orthogonalLoop=1;jettySize=auto;html=1;exitX=0.5;exitY=1;exitDx=0;exitDy=0;entryX=0.5;entryY=0;entryDx=0;entryDy=0;" edge="1" parent="WIyWlLk6GJQsqaUBKTNV-1" source="LqseYLnrZS91-2_6GQep-7" target="LqseYLnrZS91-2_6GQep-2">
          <mxGeometry relative="1" as="geometry" />
        </mxCell>
        <mxCell id="LqseYLnrZS91-2_6GQep-7" value="Besprechung der&lt;br&gt;Anforderungen" style="rounded=1;whiteSpace=wrap;html=1;" vertex="1" parent="WIyWlLk6GJQsqaUBKTNV-1">
          <mxGeometry x="400" y="80" width="120" height="60" as="geometry" />
        </mxCell>
        <mxCell id="LqseYLnrZS91-2_6GQep-13" value="Product Backlog" style="rounded=0;whiteSpace=wrap;html=1;" vertex="1" parent="WIyWlLk6GJQsqaUBKTNV-1">
          <mxGeometry x="200" y="320" width="120" height="60" as="geometry" />
        </mxCell>
        <mxCell id="LqseYLnrZS91-2_6GQep-27" style="edgeStyle=orthogonalEdgeStyle;rounded=0;orthogonalLoop=1;jettySize=auto;html=1;exitX=1;exitY=0.5;exitDx=0;exitDy=0;entryX=0;entryY=0.5;entryDx=0;entryDy=0;" edge="1" parent="WIyWlLk6GJQsqaUBKTNV-1" source="LqseYLnrZS91-2_6GQep-20" target="LqseYLnrZS91-2_6GQep-26">
          <mxGeometry relative="1" as="geometry" />
        </mxCell>
        <mxCell id="LqseYLnrZS91-2_6GQep-20" value="Product Backlog&lt;br&gt;Item" style="rounded=0;whiteSpace=wrap;html=1;" vertex="1" parent="WIyWlLk6GJQsqaUBKTNV-1">
          <mxGeometry x="200" y="440" width="120" height="60" as="geometry" />
        </mxCell>
        <mxCell id="LqseYLnrZS91-2_6GQep-22" value="" style="endArrow=none;dashed=1;html=1;dashPattern=1 3;strokeWidth=2;rounded=0;exitX=0.5;exitY=0;exitDx=0;exitDy=0;entryX=0.5;entryY=1;entryDx=0;entryDy=0;" edge="1" parent="WIyWlLk6GJQsqaUBKTNV-1" source="LqseYLnrZS91-2_6GQep-20" target="LqseYLnrZS91-2_6GQep-13">
          <mxGeometry width="50" height="50" relative="1" as="geometry">
            <mxPoint x="440" y="400" as="sourcePoint" />
            <mxPoint x="460" y="380" as="targetPoint" />
          </mxGeometry>
        </mxCell>
        <mxCell id="LqseYLnrZS91-2_6GQep-25" style="edgeStyle=orthogonalEdgeStyle;rounded=0;orthogonalLoop=1;jettySize=auto;html=1;exitX=0.5;exitY=1;exitDx=0;exitDy=0;entryX=0;entryY=0.5;entryDx=0;entryDy=0;" edge="1" parent="WIyWlLk6GJQsqaUBKTNV-1" source="LqseYLnrZS91-2_6GQep-23" target="LqseYLnrZS91-2_6GQep-20">
          <mxGeometry relative="1" as="geometry" />
        </mxCell>
        <mxCell id="LqseYLnrZS91-2_6GQep-23" value="Priorisierung" style="rounded=1;whiteSpace=wrap;html=1;" vertex="1" parent="WIyWlLk6GJQsqaUBKTNV-1">
          <mxGeometry y="260" width="120" height="60" as="geometry" />
        </mxCell>
        <mxCell id="LqseYLnrZS91-2_6GQep-28" style="edgeStyle=orthogonalEdgeStyle;rounded=0;orthogonalLoop=1;jettySize=auto;html=1;exitX=0.5;exitY=1;exitDx=0;exitDy=0;entryX=0.5;entryY=1;entryDx=0;entryDy=0;" edge="1" parent="WIyWlLk6GJQsqaUBKTNV-1" source="LqseYLnrZS91-2_6GQep-26" target="LqseYLnrZS91-2_6GQep-20">
          <mxGeometry relative="1" as="geometry">
            <Array as="points">
              <mxPoint x="460" y="530" />
              <mxPoint x="260" y="530" />
            </Array>
          </mxGeometry>
        </mxCell>
        <mxCell id="LqseYLnrZS91-2_6GQep-29" value="Nein" style="edgeLabel;html=1;align=center;verticalAlign=middle;resizable=0;points=[];" vertex="1" connectable="0" parent="LqseYLnrZS91-2_6GQep-28">
          <mxGeometry x="0.0167" relative="1" as="geometry">
            <mxPoint as="offset" />
          </mxGeometry>
        </mxCell>
        <mxCell id="LqseYLnrZS91-2_6GQep-31" style="edgeStyle=orthogonalEdgeStyle;rounded=0;orthogonalLoop=1;jettySize=auto;html=1;exitX=1;exitY=0.5;exitDx=0;exitDy=0;entryX=0;entryY=0.5;entryDx=0;entryDy=0;" edge="1" parent="WIyWlLk6GJQsqaUBKTNV-1" source="LqseYLnrZS91-2_6GQep-26" target="LqseYLnrZS91-2_6GQep-30">
          <mxGeometry relative="1" as="geometry" />
        </mxCell>
        <mxCell id="LqseYLnrZS91-2_6GQep-32" value="Ja" style="edgeLabel;html=1;align=center;verticalAlign=middle;resizable=0;points=[];" vertex="1" connectable="0" parent="LqseYLnrZS91-2_6GQep-31">
          <mxGeometry x="-0.0229" relative="1" as="geometry">
            <mxPoint as="offset" />
          </mxGeometry>
        </mxCell>
        <mxCell id="LqseYLnrZS91-2_6GQep-53" style="edgeStyle=orthogonalEdgeStyle;rounded=0;orthogonalLoop=1;jettySize=auto;html=1;exitX=0.5;exitY=0;exitDx=0;exitDy=0;entryX=0.5;entryY=1;entryDx=0;entryDy=0;" edge="1" parent="WIyWlLk6GJQsqaUBKTNV-1" source="LqseYLnrZS91-2_6GQep-26" target="LqseYLnrZS91-2_6GQep-52">
          <mxGeometry relative="1" as="geometry" />
        </mxCell>
        <mxCell id="LqseYLnrZS91-2_6GQep-54" value="Nein" style="edgeLabel;html=1;align=center;verticalAlign=middle;resizable=0;points=[];" vertex="1" connectable="0" parent="LqseYLnrZS91-2_6GQep-53">
          <mxGeometry x="-0.0718" y="2" relative="1" as="geometry">
            <mxPoint as="offset" />
          </mxGeometry>
        </mxCell>
        <mxCell id="LqseYLnrZS91-2_6GQep-26" value="Planning Poker" style="rounded=1;whiteSpace=wrap;html=1;" vertex="1" parent="WIyWlLk6GJQsqaUBKTNV-1">
          <mxGeometry x="400" y="440" width="120" height="60" as="geometry" />
        </mxCell>
        <mxCell id="LqseYLnrZS91-2_6GQep-62" style="edgeStyle=orthogonalEdgeStyle;rounded=0;orthogonalLoop=1;jettySize=auto;html=1;exitX=0.5;exitY=1;exitDx=0;exitDy=0;entryX=0.5;entryY=0;entryDx=0;entryDy=0;" edge="1" parent="WIyWlLk6GJQsqaUBKTNV-1" source="LqseYLnrZS91-2_6GQep-30" target="LqseYLnrZS91-2_6GQep-36">
          <mxGeometry relative="1" as="geometry" />
        </mxCell>
        <mxCell id="LqseYLnrZS91-2_6GQep-68" style="edgeStyle=orthogonalEdgeStyle;rounded=0;orthogonalLoop=1;jettySize=auto;html=1;exitX=1;exitY=0.5;exitDx=0;exitDy=0;entryX=0;entryY=0.25;entryDx=0;entryDy=0;" edge="1" parent="WIyWlLk6GJQsqaUBKTNV-1" source="LqseYLnrZS91-2_6GQep-30" target="LqseYLnrZS91-2_6GQep-65">
          <mxGeometry relative="1" as="geometry">
            <Array as="points">
              <mxPoint x="830" y="470" />
              <mxPoint x="830" y="335" />
            </Array>
          </mxGeometry>
        </mxCell>
        <mxCell id="LqseYLnrZS91-2_6GQep-30" value="Selected Product Backlog Item" style="rounded=0;whiteSpace=wrap;html=1;" vertex="1" parent="WIyWlLk6GJQsqaUBKTNV-1">
          <mxGeometry x="600" y="440" width="120" height="60" as="geometry" />
        </mxCell>
        <mxCell id="LqseYLnrZS91-2_6GQep-33" value="Selected Product Backlog" style="rounded=0;whiteSpace=wrap;html=1;" vertex="1" parent="WIyWlLk6GJQsqaUBKTNV-1">
          <mxGeometry x="600" y="320" width="120" height="60" as="geometry" />
        </mxCell>
        <mxCell id="LqseYLnrZS91-2_6GQep-34" value="" style="endArrow=none;dashed=1;html=1;dashPattern=1 3;strokeWidth=2;rounded=0;entryX=0.5;entryY=1;entryDx=0;entryDy=0;exitX=0.5;exitY=0;exitDx=0;exitDy=0;" edge="1" parent="WIyWlLk6GJQsqaUBKTNV-1" source="LqseYLnrZS91-2_6GQep-30" target="LqseYLnrZS91-2_6GQep-33">
          <mxGeometry width="50" height="50" relative="1" as="geometry">
            <mxPoint x="530" y="400" as="sourcePoint" />
            <mxPoint x="580" y="350" as="targetPoint" />
          </mxGeometry>
        </mxCell>
        <mxCell id="LqseYLnrZS91-2_6GQep-43" style="edgeStyle=orthogonalEdgeStyle;rounded=0;orthogonalLoop=1;jettySize=auto;html=1;exitX=0.5;exitY=1;exitDx=0;exitDy=0;entryX=0.5;entryY=0;entryDx=0;entryDy=0;" edge="1" parent="WIyWlLk6GJQsqaUBKTNV-1" source="LqseYLnrZS91-2_6GQep-36" target="LqseYLnrZS91-2_6GQep-42">
          <mxGeometry relative="1" as="geometry" />
        </mxCell>
        <mxCell id="LqseYLnrZS91-2_6GQep-36" value="Forecast" style="rounded=1;whiteSpace=wrap;html=1;" vertex="1" parent="WIyWlLk6GJQsqaUBKTNV-1">
          <mxGeometry x="600" y="560" width="120" height="60" as="geometry" />
        </mxCell>
        <mxCell id="LqseYLnrZS91-2_6GQep-69" style="edgeStyle=orthogonalEdgeStyle;rounded=0;orthogonalLoop=1;jettySize=auto;html=1;exitX=1;exitY=0.5;exitDx=0;exitDy=0;entryX=0;entryY=0.75;entryDx=0;entryDy=0;" edge="1" parent="WIyWlLk6GJQsqaUBKTNV-1" source="LqseYLnrZS91-2_6GQep-42" target="LqseYLnrZS91-2_6GQep-65">
          <mxGeometry relative="1" as="geometry">
            <Array as="points">
              <mxPoint x="890" y="710" />
              <mxPoint x="890" y="365" />
            </Array>
          </mxGeometry>
        </mxCell>
        <mxCell id="LqseYLnrZS91-2_6GQep-42" value="Ziel" style="rounded=0;whiteSpace=wrap;html=1;fillColor=#dae8fc;strokeColor=#6c8ebf;" vertex="1" parent="WIyWlLk6GJQsqaUBKTNV-1">
          <mxGeometry x="600" y="680" width="120" height="60" as="geometry" />
        </mxCell>
        <mxCell id="LqseYLnrZS91-2_6GQep-48" style="edgeStyle=orthogonalEdgeStyle;rounded=0;orthogonalLoop=1;jettySize=auto;html=1;exitX=0.5;exitY=1;exitDx=0;exitDy=0;entryX=0.5;entryY=0;entryDx=0;entryDy=0;" edge="1" parent="WIyWlLk6GJQsqaUBKTNV-1" source="LqseYLnrZS91-2_6GQep-44" target="LqseYLnrZS91-2_6GQep-47">
          <mxGeometry relative="1" as="geometry" />
        </mxCell>
        <mxCell id="LqseYLnrZS91-2_6GQep-60" style="edgeStyle=orthogonalEdgeStyle;rounded=0;orthogonalLoop=1;jettySize=auto;html=1;exitX=1;exitY=0.5;exitDx=0;exitDy=0;entryX=0.5;entryY=0;entryDx=0;entryDy=0;" edge="1" parent="WIyWlLk6GJQsqaUBKTNV-1" source="LqseYLnrZS91-2_6GQep-44" target="LqseYLnrZS91-2_6GQep-65">
          <mxGeometry relative="1" as="geometry">
            <mxPoint x="1060" y="320" as="targetPoint" />
          </mxGeometry>
        </mxCell>
        <mxCell id="LqseYLnrZS91-2_6GQep-44" value="Scrum Master" style="rounded=0;whiteSpace=wrap;html=1;fillColor=#d5e8d4;strokeColor=#82b366;" vertex="1" parent="WIyWlLk6GJQsqaUBKTNV-1">
          <mxGeometry x="800" y="80" width="120" height="60" as="geometry" />
        </mxCell>
        <mxCell id="LqseYLnrZS91-2_6GQep-49" style="edgeStyle=orthogonalEdgeStyle;rounded=0;orthogonalLoop=1;jettySize=auto;html=1;exitX=0;exitY=0.5;exitDx=0;exitDy=0;entryX=0.75;entryY=1;entryDx=0;entryDy=0;" edge="1" parent="WIyWlLk6GJQsqaUBKTNV-1" source="LqseYLnrZS91-2_6GQep-47" target="LqseYLnrZS91-2_6GQep-3">
          <mxGeometry relative="1" as="geometry" />
        </mxCell>
        <mxCell id="LqseYLnrZS91-2_6GQep-47" value="Besprechung des vorherigen Sprints" style="rounded=1;whiteSpace=wrap;html=1;" vertex="1" parent="WIyWlLk6GJQsqaUBKTNV-1">
          <mxGeometry x="800" y="200" width="120" height="60" as="geometry" />
        </mxCell>
        <mxCell id="LqseYLnrZS91-2_6GQep-55" style="edgeStyle=orthogonalEdgeStyle;rounded=0;orthogonalLoop=1;jettySize=auto;html=1;exitX=0.5;exitY=0;exitDx=0;exitDy=0;entryX=0.75;entryY=1;entryDx=0;entryDy=0;" edge="1" parent="WIyWlLk6GJQsqaUBKTNV-1" source="LqseYLnrZS91-2_6GQep-52" target="LqseYLnrZS91-2_6GQep-2">
          <mxGeometry relative="1" as="geometry" />
        </mxCell>
        <mxCell id="LqseYLnrZS91-2_6GQep-56" value="Ja" style="edgeLabel;html=1;align=center;verticalAlign=middle;resizable=0;points=[];" vertex="1" connectable="0" parent="LqseYLnrZS91-2_6GQep-55">
          <mxGeometry x="0.0325" y="1" relative="1" as="geometry">
            <mxPoint as="offset" />
          </mxGeometry>
        </mxCell>
        <mxCell id="LqseYLnrZS91-2_6GQep-52" value="Ziel Anpassung&lt;br&gt;nötig?" style="rounded=1;whiteSpace=wrap;html=1;" vertex="1" parent="WIyWlLk6GJQsqaUBKTNV-1">
          <mxGeometry x="400" y="320" width="120" height="60" as="geometry" />
        </mxCell>
        <mxCell id="LqseYLnrZS91-2_6GQep-67" style="edgeStyle=orthogonalEdgeStyle;rounded=0;orthogonalLoop=1;jettySize=auto;html=1;exitX=0.5;exitY=1;exitDx=0;exitDy=0;entryX=0.5;entryY=0;entryDx=0;entryDy=0;" edge="1" parent="WIyWlLk6GJQsqaUBKTNV-1" source="LqseYLnrZS91-2_6GQep-58" target="LqseYLnrZS91-2_6GQep-59">
          <mxGeometry relative="1" as="geometry" />
        </mxCell>
        <mxCell id="LqseYLnrZS91-2_6GQep-58" value="Confluence" style="rounded=0;whiteSpace=wrap;html=1;" vertex="1" parent="WIyWlLk6GJQsqaUBKTNV-1">
          <mxGeometry x="1000" y="440" width="120" height="60" as="geometry" />
        </mxCell>
        <mxCell id="LqseYLnrZS91-2_6GQep-59" value="2. Planning Meeting" style="rounded=0;whiteSpace=wrap;html=1;fillColor=#dae8fc;strokeColor=#6c8ebf;" vertex="1" parent="WIyWlLk6GJQsqaUBKTNV-1">
          <mxGeometry x="1000" y="560" width="120" height="60" as="geometry" />
        </mxCell>
        <mxCell id="LqseYLnrZS91-2_6GQep-66" style="edgeStyle=orthogonalEdgeStyle;rounded=0;orthogonalLoop=1;jettySize=auto;html=1;exitX=0.5;exitY=1;exitDx=0;exitDy=0;entryX=0.5;entryY=0;entryDx=0;entryDy=0;" edge="1" parent="WIyWlLk6GJQsqaUBKTNV-1" source="LqseYLnrZS91-2_6GQep-65" target="LqseYLnrZS91-2_6GQep-58">
          <mxGeometry relative="1" as="geometry" />
        </mxCell>
        <mxCell id="LqseYLnrZS91-2_6GQep-65" value="Dokumentation" style="rounded=1;whiteSpace=wrap;html=1;" vertex="1" parent="WIyWlLk6GJQsqaUBKTNV-1">
          <mxGeometry x="1000" y="320" width="120" height="60" as="geometry" />
        </mxCell>
      </root>
    </mxGraphModel>
  </diagram>
</mxfile>
